<?xml version="1.0" encoding="utf-8" standalone="no"?>
<!DOCTYPE svg PUBLIC "-//W3C//DTD SVG 1.1//EN"
  "http://www.w3.org/Graphics/SVG/1.1/DTD/svg11.dtd">
<svg xmlns:xlink="http://www.w3.org/1999/xlink" width="288pt" height="216pt" viewBox="0 0 288 216" xmlns="http://www.w3.org/2000/svg" version="1.1">
 <metadata>
  <rdf:RDF xmlns:dc="http://purl.org/dc/elements/1.1/" xmlns:cc="http://creativecommons.org/ns#" xmlns:rdf="http://www.w3.org/1999/02/22-rdf-syntax-ns#">
   <cc:Work>
    <dc:type rdf:resource="http://purl.org/dc/dcmitype/StillImage"/>
    <dc:date>2025-08-17T14:56:59.656779</dc:date>
    <dc:format>image/svg+xml</dc:format>
    <dc:creator>
     <cc:Agent>
      <dc:title>Matplotlib v3.10.0, https://matplotlib.org/</dc:title>
     </cc:Agent>
    </dc:creator>
   </cc:Work>
  </rdf:RDF>
 </metadata>
 <defs>
  <style type="text/css">*{stroke-linejoin: round; stroke-linecap: butt}</style>
 </defs>
 <g id="figure_1">
  <g id="patch_1">
   <path d="M 0 216 
L 288 216 
L 288 0 
L 0 0 
z
" style="fill: #ffffff"/>
  </g>
  <g id="axes_1">
   <g id="patch_2">
    <path d="M 49.97 170.44 
L 275.04 170.44 
L 275.04 12.96 
L 49.97 12.96 
z
" style="fill: #ffffff"/>
   </g>
   <g id="matplotlib.axis_1">
    <g id="xtick_1">
     <g id="line2d_1">
      <defs>
       <path id="mdc3c71504e" d="M 0 0 
L 0 3.5 
" style="stroke: #000000; stroke-width: 0.8"/>
      </defs>
      <g>
       <use xlink:href="#mdc3c71504e" x="57.271629" y="170.44" style="stroke: #000000; stroke-width: 0.8"/>
      </g>
     </g>
     <g id="text_1">
      <text style="font-weight: 200; font-size: 12px; font-family: 'Calibri'; text-anchor: middle" x="57.271629" y="185.6075" transform="rotate(-0 57.271629 185.6075)">0</text>
     </g>
    </g>
    <g id="xtick_2">
     <g id="line2d_2">
      <g>
       <use xlink:href="#mdc3c71504e" x="120.136586" y="170.44" style="stroke: #000000; stroke-width: 0.8"/>
      </g>
     </g>
     <g id="text_2">
      <text style="font-weight: 200; font-size: 12px; font-family: 'Calibri'; text-anchor: middle" x="120.136586" y="185.6075" transform="rotate(-0 120.136586 185.6075)">50</text>
     </g>
    </g>
    <g id="xtick_3">
     <g id="line2d_3">
      <g>
       <use xlink:href="#mdc3c71504e" x="183.001542" y="170.44" style="stroke: #000000; stroke-width: 0.8"/>
      </g>
     </g>
     <g id="text_3">
      <text style="font-weight: 200; font-size: 12px; font-family: 'Calibri'; text-anchor: middle" x="183.001542" y="185.6075" transform="rotate(-0 183.001542 185.6075)">100</text>
     </g>
    </g>
    <g id="xtick_4">
     <g id="line2d_4">
      <g>
       <use xlink:href="#mdc3c71504e" x="245.866499" y="170.44" style="stroke: #000000; stroke-width: 0.8"/>
      </g>
     </g>
     <g id="text_4">
      <text style="font-weight: 200; font-size: 12px; font-family: 'Calibri'; text-anchor: middle" x="245.866499" y="185.6075" transform="rotate(-0 245.866499 185.6075)">150</text>
     </g>
    </g>
    <g id="text_5">
     <text style="font-size: 12px; font-family: 'Calibri'; text-anchor: middle" x="162.505" y="199.90875" transform="rotate(-0 162.505 199.90875)">distance</text>
    </g>
   </g>
   <g id="matplotlib.axis_2">
    <g id="ytick_1">
     <g id="line2d_5">
      <defs>
       <path id="m2679023973" d="M 0 0 
L -3.5 0 
" style="stroke: #000000; stroke-width: 0.8"/>
      </defs>
      <g>
       <use xlink:href="#m2679023973" x="49.97" y="163.793684" style="stroke: #000000; stroke-width: 0.8"/>
      </g>
     </g>
     <g id="text_6">
      <text style="font-weight: 200; font-size: 12px; font-family: 'Calibri'; text-anchor: end" x="42.97" y="167.877434" transform="rotate(-0 42.97 167.877434)">0.0</text>
     </g>
    </g>
    <g id="ytick_2">
     <g id="line2d_6">
      <g>
       <use xlink:href="#m2679023973" x="49.97" y="135.058584" style="stroke: #000000; stroke-width: 0.8"/>
      </g>
     </g>
     <g id="text_7">
      <text style="font-weight: 200; font-size: 12px; font-family: 'Calibri'; text-anchor: end" x="42.97" y="139.142334" transform="rotate(-0 42.97 139.142334)">0.2</text>
     </g>
    </g>
    <g id="ytick_3">
     <g id="line2d_7">
      <g>
       <use xlink:href="#m2679023973" x="49.97" y="106.323483" style="stroke: #000000; stroke-width: 0.8"/>
      </g>
     </g>
     <g id="text_8">
      <text style="font-weight: 200; font-size: 12px; font-family: 'Calibri'; text-anchor: end" x="42.97" y="110.407233" transform="rotate(-0 42.97 110.407233)">0.4</text>
     </g>
    </g>
    <g id="ytick_4">
     <g id="line2d_8">
      <g>
       <use xlink:href="#m2679023973" x="49.97" y="77.588383" style="stroke: #000000; stroke-width: 0.8"/>
      </g>
     </g>
     <g id="text_9">
      <text style="font-weight: 200; font-size: 12px; font-family: 'Calibri'; text-anchor: end" x="42.97" y="81.672133" transform="rotate(-0 42.97 81.672133)">0.6</text>
     </g>
    </g>
    <g id="ytick_5">
     <g id="line2d_9">
      <g>
       <use xlink:href="#m2679023973" x="49.97" y="48.853282" style="stroke: #000000; stroke-width: 0.8"/>
      </g>
     </g>
     <g id="text_10">
      <text style="font-weight: 200; font-size: 12px; font-family: 'Calibri'; text-anchor: end" x="42.97" y="52.937032" transform="rotate(-0 42.97 52.937032)">0.8</text>
     </g>
    </g>
    <g id="ytick_6">
     <g id="line2d_10">
      <g>
       <use xlink:href="#m2679023973" x="49.97" y="20.118182" style="stroke: #000000; stroke-width: 0.8"/>
      </g>
     </g>
     <g id="text_11">
      <text style="font-weight: 200; font-size: 12px; font-family: 'Calibri'; text-anchor: end" x="42.97" y="24.201932" transform="rotate(-0 42.97 24.201932)">1.0</text>
     </g>
    </g>
    <g id="text_12">
     <text style="font-size: 12px; font-family: 'Calibri'; text-anchor: middle" x="21.735" y="91.7" transform="rotate(-90 21.735 91.7)">semivariance</text>
    </g>
   </g>
   <g id="line2d_11">
    <path d="M 60.200455 22.207969 
L 63.975109 20.118183 
L 264.809545 20.118182 
L 264.809545 20.118182 
" clip-path="url(#pdf876b7216)" style="fill: none; stroke: #edd9a3; stroke-width: 1.5; stroke-linecap: square"/>
   </g>
   <g id="line2d_12">
    <path d="M 60.200455 151.630283 
L 63.975109 134.419579 
L 67.161173 108.314223 
L 70.215023 82.564975 
L 72.403844 66.163232 
L 74.161105 54.935222 
L 75.649629 46.942785 
L 76.965519 41.036003 
L 78.146296 36.607145 
L 79.228511 33.215303 
L 80.559039 29.828982 
L 81.778945 27.38713 
L 82.924576 25.581791 
L 83.997238 24.250935 
L 85.262368 23.04808 
L 86.454977 22.206305 
L 87.804078 21.517578 
L 89.283825 21.001813 
L 91.06992 20.61097 
L 93.464741 20.332448 
L 96.957637 20.1756 
L 104.403481 20.120495 
L 211.9811 20.118182 
L 264.809545 20.118182 
L 264.809545 20.118182 
" clip-path="url(#pdf876b7216)" style="fill: none; stroke: #f6a47a; stroke-width: 1.5; stroke-linecap: square"/>
   </g>
   <g id="line2d_13">
    <path d="M 60.200455 160.630181 
L 63.975109 155.788399 
L 65.77411 151.352909 
L 67.161173 147.277008 
L 69.335161 139.992287 
L 71.737844 130.886084 
L 74.681824 118.703722 
L 84.257621 78.266 
L 86.912099 68.364495 
L 89.283825 60.351909 
L 91.449639 53.78845 
L 93.640432 47.908116 
L 95.674918 43.123396 
L 97.580175 39.213322 
L 99.377316 36.004757 
L 101.221166 33.162923 
L 102.973789 30.849848 
L 104.785446 28.819529 
L 106.648335 27.071969 
L 108.558887 25.5942 
L 110.510569 24.368538 
L 112.613351 23.319031 
L 114.855933 22.455129 
L 117.332963 21.745463 
L 120.13954 21.178283 
L 123.539272 20.732695 
L 127.776645 20.417333 
L 133.710652 20.219464 
L 144.187115 20.13027 
L 191.745031 20.118182 
L 264.809545 20.118182 
L 264.809545 20.118182 
" clip-path="url(#pdf876b7216)" style="fill: none; stroke: #f56a7c; stroke-width: 1.5; stroke-linecap: square"/>
   </g>
   <g id="line2d_14">
    <path d="M 60.200455 162.377231 
L 63.975109 160.177327 
L 65.77411 158.123695 
L 67.161173 156.202076 
L 69.335161 152.680613 
L 71.737844 148.106865 
L 74.161105 142.85345 
L 76.965519 136.098846 
L 80.238031 127.497691 
L 84.514083 115.495933 
L 95.838388 83.326716 
L 99.522716 73.747101 
L 102.709143 66.080684 
L 105.664544 59.557246 
L 108.44202 53.973604 
L 110.960456 49.380504 
L 113.478348 45.235752 
L 115.899614 41.661576 
L 118.343463 38.449057 
L 120.729634 35.675641 
L 123.060659 33.291781 
L 125.534024 31.088324 
L 127.961842 29.224394 
L 130.443656 27.595461 
L 132.987315 26.184847 
L 135.698718 24.934872 
L 138.515434 23.875864 
L 141.647673 22.940109 
L 145.040936 22.162264 
L 148.918274 21.510425 
L 153.37083 20.995818 
L 158.767022 20.605328 
L 165.805016 20.333599 
L 176.138783 20.177051 
L 198.083951 20.120715 
L 264.809545 20.118182 
L 264.809545 20.118182 
" clip-path="url(#pdf876b7216)" style="fill: none; stroke: #d34194; stroke-width: 1.5; stroke-linecap: square"/>
   </g>
   <g id="line2d_15">
    <path d="M 60.200455 162.994856 
L 63.975109 161.7478 
L 65.77411 160.57596 
L 68.333375 158.421073 
L 70.215023 156.499051 
L 72.403844 153.92724 
L 74.681824 150.882334 
L 77.374461 146.846857 
L 79.909408 142.654773 
L 82.924576 137.238842 
L 86.454977 130.405669 
L 90.685206 121.700293 
L 97.114394 107.879433 
L 106.158122 88.522787 
L 110.848739 79.039212 
L 114.855933 71.427765 
L 118.54429 64.897496 
L 121.998469 59.237058 
L 125.156163 54.467269 
L 128.240315 50.190104 
L 131.26373 46.363947 
L 134.252668 42.932159 
L 137.238877 39.842272 
L 140.258558 37.047471 
L 143.14871 34.666752 
L 146.189075 32.453507 
L 149.215208 30.525474 
L 152.339702 28.798697 
L 155.586466 27.261091 
L 158.991925 25.899271 
L 162.476645 24.739449 
L 166.315015 23.69799 
L 170.456159 22.808218 
L 175.029683 22.056057 
L 180.219059 21.433016 
L 186.323678 20.933633 
L 193.607162 20.565647 
L 203.450854 20.306858 
L 217.911075 20.165778 
L 250.652574 20.119543 
L 264.809545 20.118692 
L 264.809545 20.118692 
" clip-path="url(#pdf876b7216)" style="fill: none; stroke: #942ea1; stroke-width: 1.5; stroke-linecap: square"/>
   </g>
   <g id="line2d_16">
    <path d="M 60.200455 163.281818 
L 63.975109 162.480838 
L 65.77411 161.725867 
L 68.333375 160.331594 
L 71.011198 158.496991 
L 73.611079 156.366045 
L 76.104193 154.012795 
L 78.877508 151.063615 
L 81.778945 147.62773 
L 85.015498 143.41448 
L 88.659493 138.246026 
L 92.568132 132.282663 
L 97.270615 124.661458 
L 103.88886 113.404952 
L 118.54429 88.249577 
L 123.921372 79.544609 
L 128.609466 72.375525 
L 132.987315 66.100062 
L 136.87667 60.898124 
L 140.628145 56.23256 
L 144.281402 52.030792 
L 147.841319 48.262965 
L 151.524102 44.702173 
L 155.052178 41.605445 
L 158.54347 38.833543 
L 161.998667 36.36487 
L 165.677032 34.021078 
L 169.216628 32.02464 
L 172.89726 30.198909 
L 176.625701 28.588064 
L 180.581167 27.11698 
L 184.842682 25.777513 
L 189.268166 24.62242 
L 193.883445 23.638857 
L 199.072487 22.760171 
L 204.673618 22.03302 
L 211.411878 21.397002 
L 218.687411 20.928562 
L 227.450728 20.57326 
L 239.41477 20.315654 
L 250.652574 20.20538 
L 264.809545 20.163602 
L 264.809545 20.163602 
" clip-path="url(#pdf876b7216)" style="fill: none; stroke: #4b2991; stroke-width: 1.5; stroke-linecap: square"/>
   </g>
   <g id="patch_3">
    <path d="M 49.97 170.44 
L 49.97 12.96 
" style="fill: none; stroke: #000000; stroke-width: 0.8; stroke-linejoin: miter; stroke-linecap: square"/>
   </g>
   <g id="patch_4">
    <path d="M 49.97 170.44 
L 275.04 170.44 
" style="fill: none; stroke: #000000; stroke-width: 0.8; stroke-linejoin: miter; stroke-linecap: square"/>
   </g>
   <g id="legend_1">
    <g id="patch_5">
     <path d="M 216.075 164.44 
L 266.64 164.44 
Q 269.04 164.44 269.04 162.04 
L 269.04 64.00375 
Q 269.04 61.60375 266.64 61.60375 
L 216.075 61.60375 
Q 213.675 61.60375 213.675 64.00375 
L 213.675 162.04 
Q 213.675 164.44 216.075 164.44 
z
" style="fill: #ffffff; opacity: 0.8; stroke: #cccccc; stroke-linejoin: miter"/>
    </g>
    <g id="line2d_17">
     <path d="M 218.475 70.60375 
L 230.475 70.60375 
L 242.475 70.60375 
" style="fill: none; stroke: #edd9a3; stroke-width: 1.5; stroke-linecap: square"/>
    </g>
    <g id="text_13">
     <text style="font-weight: 200; font-size: 12px; font-family: 'Calibri'; text-anchor: start" x="252.075" y="74.80375" transform="rotate(-0 252.075 74.80375)">1</text>
    </g>
    <g id="line2d_18">
     <path d="M 218.475 87.143125 
L 230.475 87.143125 
L 242.475 87.143125 
" style="fill: none; stroke: #f6a47a; stroke-width: 1.5; stroke-linecap: square"/>
    </g>
    <g id="text_14">
     <text style="font-weight: 200; font-size: 12px; font-family: 'Calibri'; text-anchor: start" x="252.075" y="91.343125" transform="rotate(-0 252.075 91.343125)">10</text>
    </g>
    <g id="line2d_19">
     <path d="M 218.475 103.6825 
L 230.475 103.6825 
L 242.475 103.6825 
" style="fill: none; stroke: #f56a7c; stroke-width: 1.5; stroke-linecap: square"/>
    </g>
    <g id="text_15">
     <text style="font-weight: 200; font-size: 12px; font-family: 'Calibri'; text-anchor: start" x="252.075" y="107.8825" transform="rotate(-0 252.075 107.8825)">20</text>
    </g>
    <g id="line2d_20">
     <path d="M 218.475 120.221875 
L 230.475 120.221875 
L 242.475 120.221875 
" style="fill: none; stroke: #d34194; stroke-width: 1.5; stroke-linecap: square"/>
    </g>
    <g id="text_16">
     <text style="font-weight: 200; font-size: 12px; font-family: 'Calibri'; text-anchor: start" x="252.075" y="124.421875" transform="rotate(-0 252.075 124.421875)">30</text>
    </g>
    <g id="line2d_21">
     <path d="M 218.475 136.76125 
L 230.475 136.76125 
L 242.475 136.76125 
" style="fill: none; stroke: #942ea1; stroke-width: 1.5; stroke-linecap: square"/>
    </g>
    <g id="text_17">
     <text style="font-weight: 200; font-size: 12px; font-family: 'Calibri'; text-anchor: start" x="252.075" y="140.96125" transform="rotate(-0 252.075 140.96125)">40</text>
    </g>
    <g id="line2d_22">
     <path d="M 218.475 153.300625 
L 230.475 153.300625 
L 242.475 153.300625 
" style="fill: none; stroke: #4b2991; stroke-width: 1.5; stroke-linecap: square"/>
    </g>
    <g id="text_18">
     <text style="font-weight: 200; font-size: 12px; font-family: 'Calibri'; text-anchor: start" x="252.075" y="157.500625" transform="rotate(-0 252.075 157.500625)">50</text>
    </g>
   </g>
  </g>
 </g>
 <defs>
  <clipPath id="pdf876b7216">
   <rect x="49.97" y="12.96" width="225.07" height="157.48"/>
  </clipPath>
 </defs>
</svg>
